<svg width="36" height="37" viewBox="0 0 36 37" fill="none" xmlns="http://www.w3.org/2000/svg">
<mask id="mask0_949_494" style="mask-type:luminance" maskUnits="userSpaceOnUse" x="0" y="0" width="36" height="37">
<path d="M36 0.5H0V36.5H36V0.5Z" fill="white"/>
</mask>
<g mask="url(#mask0_949_494)">
<path d="M18.0002 29.75C17.5096 29.7506 17.0245 29.6465 16.5772 29.4447C16.13 29.243 15.7309 28.9482 15.4067 28.58L0.690178 11.852C0.225043 11.2977 -0.00475711 10.5834 0.0499175 9.86183C0.104592 9.14027 0.439401 8.46875 0.982753 7.99085C1.5261 7.51293 2.23487 7.26657 2.95749 7.30445C3.68013 7.34232 4.35926 7.66142 4.84968 8.1935L17.7182 22.8215C17.7533 22.8617 17.7967 22.8938 17.8454 22.9158C17.894 22.9379 17.9468 22.9493 18.0002 22.9493C18.0536 22.9493 18.1063 22.9379 18.155 22.9158C18.2036 22.8938 18.247 22.8617 18.2822 22.8215L31.1507 8.1935C31.388 7.91064 31.6795 7.67808 32.008 7.50948C32.3365 7.3409 32.6954 7.23968 33.0637 7.21178C33.4318 7.18388 33.802 7.22985 34.1521 7.34703C34.5022 7.4642 34.8254 7.65017 35.1028 7.89404C35.38 8.13791 35.6057 8.43474 35.7667 8.7671C35.9275 9.09945 36.0203 9.46061 36.0397 9.82935C36.059 10.1981 36.0044 10.567 35.8792 10.9143C35.7539 11.2617 35.5604 11.5805 35.3102 11.852L20.5982 28.574C20.2733 28.9431 19.8737 29.2389 19.4258 29.4416C18.9778 29.6444 18.4919 29.7495 18.0002 29.75Z" fill="#E5E5E5"/>
</g>
</svg>
