<svg width="36" height="37" viewBox="0 0 36 37" fill="none" xmlns="http://www.w3.org/2000/svg">
<g clip-path="url(#clip0_198_166)">
<mask id="mask0_198_166" style="mask-type:luminance" maskUnits="userSpaceOnUse" x="0" y="0" width="36" height="37">
<path d="M0 36.5L36 36.5L36 0.5L0 0.5L0 36.5Z" fill="white"/>
</mask>
<g mask="url(#mask0_198_166)">
<path d="M18 7.25C18.4907 7.2494 18.9757 7.3535 19.423 7.55525C19.8702 7.757 20.2694 8.05175 20.5935 8.42L35.3101 25.148C35.7752 25.7023 36.005 26.4166 35.9503 27.1382C35.8957 27.8597 35.5608 28.5313 35.0175 29.0092C34.4741 29.4871 33.7654 29.7334 33.0427 29.6956C32.3201 29.6577 31.641 29.3386 31.1506 28.8065L18.282 14.1785C18.2469 14.1383 18.2036 14.1062 18.1548 14.0842C18.1062 14.0621 18.0534 14.0507 18 14.0507C17.9466 14.0507 17.8939 14.0621 17.8452 14.0842C17.7966 14.1062 17.7533 14.1383 17.718 14.1785L4.8495 28.8065C4.6122 29.0894 4.32075 29.3219 3.99225 29.4905C3.66375 29.6591 3.3048 29.7603 2.93655 29.7882C2.56845 29.8161 2.19825 29.7701 1.84815 29.653C1.49805 29.5358 1.1748 29.3498 0.897453 29.106C0.620251 28.8621 0.394501 28.5653 0.233551 28.2329C0.0727501 27.9005 -0.0200996 27.5394 -0.0394516 27.1706C-0.0587997 26.8019 -0.00419998 26.433 0.121048 26.0857C0.2463 25.7383 0.4398 25.4195 0.689999 25.148L15.402 8.426C15.7269 8.05685 16.1265 7.76105 16.5744 7.5584C17.0224 7.3556 17.5083 7.25045 18 7.25Z" fill="#E5E5E5"/>
</g>
</g>
<defs>
<clipPath id="clip0_198_166">
<rect width="36" height="36" fill="white" transform="matrix(-1 0 0 -1 36 36.5)"/>
</clipPath>
</defs>
</svg>
