<svg width="1500" height="124" viewBox="0 0 1500 124" fill="none" xmlns="http://www.w3.org/2000/svg">
<g clip-path="url(#clip0_198_149)">
<mask id="path-1-inside-1_198_149" fill="white">
<path d="M0 0H1500V124H0V0Z"/>
</mask>
<path d="M50.7923 27.1772H57.4253L44.7856 68H38.1241L29.0429 37.6818L19.8763 68H13.2433L0.632039 27.1772H7.29351L16.7448 59.2034L26.1961 27.1772H31.8897L41.341 59.1465L50.7923 27.1772ZM78.3207 37.9095V37.8526C82.05 37.8526 84.9252 38.9913 86.9464 41.2972C88.9676 43.6031 89.964 46.763 89.964 50.777V67.9715H83.9004V51.8872C83.9004 49.2967 83.3025 47.2754 82.0784 45.8236C80.8543 44.3717 79.0608 43.6316 76.698 43.6316C74.1359 43.6316 72.0862 44.5141 70.549 46.3075C69.0117 48.101 68.2431 50.4638 68.2431 53.4245V68H62.1225V25.4406H68.2431V43.0337C70.6628 39.6176 74.022 37.9095 78.3207 37.9095ZM110.632 68.7686V68.7402C106.475 68.7402 103.002 67.2598 100.212 64.3277C97.4226 61.3955 96.0277 57.7231 96.0277 53.3106C96.0277 48.9266 97.4226 45.2542 100.212 42.322C103.002 39.3899 106.475 37.9095 110.632 37.9095C115.215 37.9095 118.745 39.6461 121.193 43.1191V38.6782H127.257V68H121.193V63.559C118.745 67.0321 115.215 68.7686 110.632 68.7686ZM111.628 63.2459L111.543 63.2743C114.247 63.2743 116.553 62.3349 118.432 60.456C120.311 58.5772 121.25 56.1859 121.25 53.3106C121.25 50.4638 120.311 48.101 118.432 46.2221C116.553 44.3433 114.276 43.4038 111.571 43.4038C108.781 43.4038 106.504 44.3433 104.71 46.1937C102.917 48.0441 102.034 50.4069 102.034 53.2821C102.034 56.1574 102.945 58.5487 104.739 60.4276C106.532 62.3064 108.838 63.2459 111.628 63.2459ZM151.825 62.0502L153.333 67.0606C151.113 68 148.949 68.4555 146.871 68.4555C143.797 68.4555 141.491 67.573 139.982 65.808C138.473 64.043 137.705 61.5947 137.705 58.4918V44.087H132.353V38.6782H137.705V28.8852H143.768V38.6782H153.106V44.087H143.768V58.4918C143.768 61.4809 145.163 62.9897 147.981 62.9897C149.262 62.9897 150.543 62.6765 151.825 62.0502ZM177.303 33.8956C176.221 33.8956 175.31 33.5255 174.57 32.8138C173.83 32.1021 173.46 31.1911 173.46 30.1094C173.46 29.113 173.83 28.2305 174.57 27.4903C175.31 26.7502 176.221 26.3801 177.303 26.3801C178.385 26.3801 179.296 26.7502 180.036 27.4903C180.776 28.2305 181.146 29.113 181.146 30.1094C181.146 31.1911 180.776 32.1021 180.036 32.8138C179.296 33.5255 178.385 33.8956 177.303 33.8956ZM174.2 68V38.6782H180.264V68H174.2ZM199.764 68.7686L199.622 68.7971C196.291 68.7971 193.359 67.9146 190.797 66.1781C188.235 64.4415 186.584 62.3349 185.815 59.8582L191.366 58.2355C191.907 59.8297 192.961 61.1393 194.498 62.1926C196.035 63.2459 197.829 63.7583 199.85 63.7583C201.672 63.7583 203.152 63.3597 204.291 62.5911C205.429 61.8225 205.999 60.883 205.999 59.7728C205.999 58.8903 205.714 58.1786 205.116 57.6662C204.518 57.1538 203.551 56.6983 202.213 56.2997L194.327 53.9654C189.658 52.5705 187.324 50.0653 187.324 46.4499C187.324 44.1155 188.406 42.1228 190.598 40.4432C192.79 38.7636 195.437 37.938 198.54 37.938C201.615 37.938 204.291 38.6212 206.54 39.9877C208.789 41.3541 210.354 43.1476 211.237 45.3396L205.828 46.9338C205.23 45.7666 204.291 44.7987 203.01 44.0016C201.729 43.2045 200.22 42.806 198.483 42.806C197.003 42.806 195.779 43.1761 194.811 43.8878C193.843 44.5995 193.359 45.425 193.359 46.3645C193.359 47.6455 194.412 48.6134 196.519 49.2682L204.319 51.5171C206.739 52.2288 208.618 53.1683 209.984 54.3639C211.351 55.5596 212.034 57.2676 212.034 59.5166C212.034 62.1641 210.867 64.3561 208.561 66.1211C206.255 67.8861 203.323 68.7686 199.764 68.7686ZM262.764 32.8992H239.591V44.5141H259.774V49.9799H239.591V62.221H262.707V68H233.356V27.1772H262.764V32.8992ZM290.577 38.6782H297.21L284.798 68H277.994L265.553 38.6782H272.215L281.353 61.367L290.577 38.6782ZM314.433 68.7686L314.49 68.8256C309.849 68.8256 306.092 67.4022 303.188 64.5554C300.284 61.7086 298.832 57.9793 298.832 53.396C298.832 48.9835 300.227 45.3112 303.017 42.379C305.807 39.4468 309.451 37.9665 313.92 37.9665C318.56 37.9665 322.204 39.3614 324.88 42.1797C327.556 44.998 328.894 48.528 328.894 52.7982C328.894 53.5384 328.837 54.3639 328.695 55.2464H304.867C305.067 57.7231 306.006 59.7159 307.714 61.2247C309.422 62.7335 311.728 63.5021 314.603 63.5021C318.646 63.5021 321.436 61.9364 322.945 58.7764L328.524 60.4276C327.471 62.7335 325.734 64.6977 323.315 66.3204C320.895 67.9431 317.934 68.7686 314.433 68.7686ZM304.867 51.204H322.888C322.688 48.8696 321.806 46.9623 320.24 45.482C318.674 44.0016 316.568 43.2615 313.949 43.2615C311.415 43.2615 309.337 44.0301 307.686 45.5674C306.035 47.1046 305.095 48.9835 304.867 51.204ZM351.327 37.9095V37.8526C355.056 37.8526 357.931 38.9913 359.953 41.2972C361.974 43.6031 362.97 46.763 362.97 50.777V67.9715H356.907V51.8872C356.907 49.2967 356.309 47.2754 355.085 45.8236C353.861 44.3717 352.067 43.6316 349.704 43.6316C347.142 43.6316 345.092 44.5141 343.555 46.3075C342.018 48.101 341.249 50.4638 341.249 53.4245V68H335.129V38.6782H341.249V43.0337C343.669 39.6176 347.028 37.9095 351.327 37.9095ZM387.31 62.0502L388.819 67.0606C386.599 68 384.435 68.4555 382.357 68.4555C379.282 68.4555 376.976 67.573 375.468 65.808C373.959 64.043 373.19 61.5947 373.19 58.4918V44.087H367.838V38.6782H373.19V28.8852H379.254V38.6782H388.591V44.087H379.254V58.4918C379.254 61.4809 380.649 62.9897 383.467 62.9897C384.748 62.9897 386.029 62.6765 387.31 62.0502ZM421.415 68L411.508 52.8267H401.203V67.9715H394.883V27.1487H414.298C418.369 27.1487 421.614 28.4582 424.034 31.0773C426.453 33.6963 427.678 36.6854 427.678 40.0731C427.678 42.8629 426.852 45.3966 425.172 47.7025C423.493 50.0083 421.158 51.5456 418.169 52.3142L428.702 68H421.415ZM401.203 32.8138L401.146 47.19H413.899C416.205 47.19 418.055 46.4783 419.45 45.0834C420.845 43.6885 421.557 42.0089 421.557 40.0446C421.557 38.0803 420.874 36.3723 419.507 34.9489C418.141 33.5255 416.347 32.8138 414.127 32.8138H401.203ZM447.349 68.7686H447.32C442.851 68.7686 439.15 67.2883 436.189 64.3561C433.229 61.4239 431.748 57.7516 431.748 53.3391C431.748 48.955 433.229 45.2827 436.189 42.3505C439.15 39.4183 442.851 37.938 447.32 37.938C451.79 37.938 455.519 39.3899 458.48 42.322C461.44 45.2542 462.921 48.9266 462.921 53.3391C462.921 57.7516 461.44 61.4239 458.48 64.3561C455.519 67.2883 451.818 68.7686 447.349 68.7686ZM447.32 63.2174C450.11 63.2174 452.416 62.278 454.238 60.3991C456.06 58.5202 456.971 56.1859 456.971 53.396C456.971 50.5492 456.06 48.1864 454.238 46.3075C452.416 44.4287 450.11 43.4892 447.32 43.4892C444.531 43.4892 442.225 44.4287 440.431 46.3075C438.638 48.1864 437.727 50.5492 437.727 53.396C437.727 56.1859 438.638 58.5202 440.431 60.3991C442.225 62.278 444.531 63.2174 447.32 63.2174ZM489.168 38.6782H495.801L483.389 68H476.585L464.145 38.6782H470.806L479.944 61.367L489.168 38.6782ZM513.024 68.7686L513.081 68.8256C508.441 68.8256 504.683 67.4022 501.779 64.5554C498.876 61.7086 497.424 57.9793 497.424 53.396C497.424 48.9835 498.819 45.3112 501.608 42.379C504.398 39.4468 508.042 37.9665 512.512 37.9665C517.152 37.9665 520.796 39.3614 523.472 42.1797C526.148 44.998 527.486 48.528 527.486 52.7982C527.486 53.5384 527.429 54.3639 527.286 55.2464H503.459C503.658 57.7231 504.598 59.7159 506.306 61.2247C508.014 62.7335 510.32 63.5021 513.195 63.5021C517.237 63.5021 520.027 61.9364 521.536 58.7764L527.116 60.4276C526.062 62.7335 524.326 64.6977 521.906 66.3204C519.486 67.9431 516.526 68.7686 513.024 68.7686ZM503.459 51.204H521.479C521.28 48.8696 520.397 46.9623 518.831 45.482C517.266 44.0016 515.159 43.2615 512.54 43.2615C510.006 43.2615 507.928 44.0301 506.277 45.5674C504.626 47.1046 503.687 48.9835 503.459 51.204ZM539.812 43.3469L539.784 43.3753C540.666 41.5534 541.976 40.187 543.712 39.276C545.449 38.365 547.499 38.0519 549.833 38.365V44.0586C546.616 43.5746 544.139 44.2009 542.403 45.9375C540.666 47.674 539.812 50.6062 539.812 54.7625V68H533.692V38.6782H539.812V43.3469ZM563.754 55.7588V55.7873C563.754 53.9938 564.124 52.3712 564.864 50.8908C565.604 49.4105 566.487 48.1864 567.511 47.19C568.536 46.1937 569.561 45.2542 570.586 44.3717C571.611 43.4892 572.493 42.5213 573.205 41.4965C573.917 40.4716 574.287 39.3614 574.287 38.1942C574.287 36.3723 573.66 34.8919 572.408 33.7532C571.155 32.6145 569.476 32.0452 567.369 32.0452C565.149 32.0452 563.327 32.7284 561.875 34.0948C560.423 35.4613 559.427 37.2832 558.886 39.5322L553.363 37.8811C553.961 34.6073 555.47 31.8744 557.918 29.7108C560.366 27.5473 563.554 26.4655 567.483 26.4655C571.326 26.4655 574.486 27.5473 576.934 29.7108C579.382 31.8744 580.607 34.6357 580.607 38.0234C580.607 39.7315 580.237 41.2972 579.496 42.6921C578.756 44.087 577.845 45.2542 576.763 46.1937C575.682 47.1331 574.6 48.0725 573.518 48.9835C572.436 49.8945 571.525 50.9193 570.757 52.058C569.988 53.1967 569.618 54.4209 569.618 55.7588H563.754ZM566.657 68.427C565.547 68.427 564.608 68.0569 563.839 67.2883C563.07 66.5197 562.672 65.5802 562.672 64.47C562.672 63.3882 563.07 62.4772 563.839 61.7086C564.608 60.94 565.547 60.5699 566.657 60.5699C567.768 60.5699 568.707 60.94 569.476 61.7086C570.244 62.4772 570.643 63.3882 570.643 64.47C570.643 65.5802 570.244 66.5197 569.476 67.2883C568.707 68.0569 567.768 68.427 566.657 68.427Z" fill="#E5E5E5"/>
<g clip-path="url(#clip1_198_149)">
<mask id="mask0_198_149" style="mask-type:luminance" maskUnits="userSpaceOnUse" x="1464" y="33" width="36" height="37">
<path d="M1500 33.5H1464V69.5H1500V33.5Z" fill="white"/>
</mask>
<g mask="url(#mask0_198_149)">
<path d="M1482 62.75C1481.51 62.7506 1481.02 62.6465 1480.58 62.4447C1480.13 62.243 1479.73 61.9482 1479.41 61.58L1464.69 44.852C1464.22 44.2977 1463.99 43.5834 1464.05 42.8618C1464.1 42.1403 1464.44 41.4687 1464.98 40.9908C1465.53 40.5129 1466.23 40.2666 1466.96 40.3044C1467.68 40.3423 1468.36 40.6614 1468.85 41.1935L1481.72 55.8215C1481.75 55.8617 1481.8 55.8938 1481.85 55.9158C1481.89 55.9379 1481.95 55.9493 1482 55.9493C1482.05 55.9493 1482.11 55.9379 1482.15 55.9158C1482.2 55.8938 1482.25 55.8617 1482.28 55.8215L1495.15 41.1935C1495.39 40.9106 1495.68 40.6781 1496.01 40.5095C1496.34 40.3409 1496.7 40.2397 1497.06 40.2118C1497.43 40.1839 1497.8 40.2299 1498.15 40.347C1498.5 40.4642 1498.83 40.6502 1499.1 40.894C1499.38 41.1379 1499.61 41.4347 1499.77 41.7671C1499.93 42.0995 1500.02 42.4606 1500.04 42.8294C1500.06 43.1981 1500 43.567 1499.88 43.9143C1499.75 44.2617 1499.56 44.5805 1499.31 44.852L1484.6 61.574C1484.27 61.9431 1483.87 62.2389 1483.43 62.4416C1482.98 62.6444 1482.49 62.7495 1482 62.75Z" fill="#E5E5E5"/>
</g>
</g>
</g>
<path d="M1500 122H0V126H1500V122Z" fill="white" mask="url(#path-1-inside-1_198_149)"/>
<defs>
<clipPath id="clip0_198_149">
<path d="M0 0H1500V124H0V0Z" fill="white"/>
</clipPath>
<clipPath id="clip1_198_149">
<rect width="36" height="36" fill="white" transform="translate(1464 33.5)"/>
</clipPath>
</defs>
</svg>
